{"title":"The Best Of Marvin Gaye","uid":4986808,"size":1607490066,"categoryP":"audio","categoryS":"flac","magnet":"?xt=urn:btih:a794f5e2fbd20c655ea5e0f8d4124d1618277634&amp;dn=The+Best+Of+Marvin+Gaye&amp;tr=udp%3A%2F%2Ftracker.openbittorrent.com%3A80&amp;tr=udp%3A%2F%2Fopen.demonii.com%3A1337&amp;tr=udp%3A%2F%2Ftracker.coppersurfer.tk%3A6969&amp;tr=udp%3A%2F%2Fexodus.desync.com%3A6969","seeders":2,"leechers":0,"uploader":"sowingmyseed","files":51,"time":1246762548,"description":"Exact Audio Copy V0.99 prebeta 4 from 23. January 2008\n\nEAC extraction logfile from 3. July 2009, 18:52\n\nMarvin Gaye / The Best Of Marvin Gaye (Disc1)\n\nUsed drive  : ATAPI   DVD D  DH16D3P   Adapter: 0  ID: 1\n\nRead mode               : Secure\nUtilize accurate stream : Yes\nDefeat audio cache      : No\nMake use of C2 pointers : No\n\nRead offset correction                      : 6\nOverread into Lead-In and Lead-Out          : No\nFill up missing offset samples with silence : Yes\nDelete leading and trailing silent blocks   : No\nNull samples used in CRC calculations       : No\nUsed interface                              : Installed external ASPI interface\nGap handling                                : Not detected, thus appended to previous track\n\nUsed output format : Internal WAV Routines\nSample format      : 44.100 Hz; 16 Bit; Stereo\n\n\nTOC of the extracted CD\n\n     Track |   Start  |  Length  | Start sector | End sector \n    ---------------------------------------------------------\n        1  |  0:00.00 |  2:43.70 |         0    |    12294   \n        2  |  2:43.70 |  2:33.22 |     12295    |    23791   \n        3  |  5:17.17 |  2:07.40 |     23792    |    33356   \n        4  |  7:24.57 |  2:47.53 |     33357    |    45934   \n        5  | 10:12.35 |  3:00.07 |     45935    |    59441   \n        6  | 13:12.42 |  2:23.03 |     59442    |    70169   \n        7  | 15:35.45 |  2:33.00 |     70170    |    81644   \n        8  | 18:08.45 |  2:59.02 |     81645    |    95071   \n        9  | 21:07.47 |  2:50.48 |     95072    |   107869   \n       10  | 23:58.20 |  2:59.57 |    107870    |   121351   \n       11  | 26:58.02 |  2:41.43 |    121352    |   133469   \n       12  | 29:39.45 |  2:43.72 |    133470    |   145766   \n       13  | 32:23.42 |  2:46.18 |    145767    |   158234   \n       14  | 35:09.60 |  2:48.32 |    158235    |   170866   \n       15  | 37:58.17 |  2:56.53 |    170867    |   184119   \n       16  | 40:54.70 |  2:28.07 |    184120    |   195226   \n       17  | 43:23.02 |  3:03.65 |    195227    |   209016   \n       18  | 46:26.67 |  3:06.60 |    209017    |   223026   \n       19  | 49:33.52 |  3:00.33 |    223027    |   236559   \n       20  | 52:34.10 |  2:22.17 |    236560    |   247226   \n       21  | 54:56.27 |  2:25.40 |    247227    |   258141   \n       22  | 57:21.67 |  2:17.03 |    258142    |   268419   \n       23  | 59:38.70 |  2:40.25 |    268420    |   280444   \n       24  | 62:19.20 |  2:36.30 |    280445    |   292174   \n       25  | 64:55.50 |  3:13.57 |    292175    |   306706   \n       26  | 68:09.32 |  2:57.10 |    306707    |   319991   \n       27  | 71:06.42 |  3:36.03 |    319992    |   336194   \n\n\nTrack  1\n\n     Filename E:MusicMarvin GayeThe Best Of Marvin Gaye (Disc1)Marvin Gaye - The Best Of Marvin Gaye (Disc1) - 01. Stubborn Kind Of Fellow.wav\n\n     Peak level 100.0 %\n     Track quality 100.0 %\n     Copy CRC E5D897EA\n     Cannot be verified as accurate (confidence 5)  [A3A8BFF3], AccurateRip returned [085D35D6]\n     Copy OK\n\nTrack  2\n\n     Filename E:MusicMarvin GayeThe Best Of Marvin Gaye (Disc1)Marvin Gaye - The Best Of Marvin Gaye (Disc1) - 02. Hitch Hike.wav\n\n     Peak level 100.0 %\n     Track quality 100.0 %\n     Copy CRC 153BBEFA\n     Cannot be verified as accurate (confidence 6)  [440665CB], AccurateRip returned [17243BD5]\n     Copy OK\n\nTrack  3\n\n     Filename E:MusicMarvin GayeThe Best Of Marvin Gaye (Disc1)Marvin Gaye - The Best Of Marvin Gaye (Disc1) - 03. Pride And Joy.wav\n\n     Peak level 100.0 %\n     Track quality 100.0 %\n     Copy CRC BE4B8495\n     Cannot be verified as accurate (confidence 6)  [3C58B7DA], AccurateRip returned [D6BE2CE5]\n     Copy OK\n\nTrack  4\n\n     Filename E:MusicMarvin GayeThe Best Of Marvin Gaye (Disc1)Marvin Gaye - The Best Of Marvin Gaye (Disc1) - 04. Can I Get A Witness.wav\n\n     Peak level 100.0 %\n     Track quality 99.9 %\n     Copy CRC A0D80923\n     Cannot be verified as accurate (confidence 6)  [B8840621], AccurateRip returned [DB8AB5A5]\n     Copy OK\n\nTrack  5\n\n     Filename E:MusicMarvin GayeThe Best Of Marvin Gaye (Disc1)Marvin Gaye - The Best Of Marvin Gaye (Disc1) - 05. Try It Baby.wav\n\n     Peak level 100.0 %\n     Track quality 100.0 %\n     Copy CRC 6A3E1B26\n     Cannot be verified as accurate (confidence 5)  [8DFD9D2B], AccurateRip returned [8B8B2B18]\n     Copy OK\n\nTrack  6\n\n     Filename E:MusicMarvin GayeThe Best Of Marvin Gaye (Disc1)Marvin Gaye - The Best Of Marvin Gaye (Disc1) - 06. What's The Matter With You Baby.wav\n\n     Peak level 96.7 %\n     Track quality 100.0 %\n     Copy CRC 35BB446E\n     Cannot be verified as accurate (confidence 6)  [DABBA05F], AccurateRip returned [AB072CCC]\n     Copy OK\n\nTrack  7\n\n     Filename E:MusicMarvin GayeThe Best Of Marvin Gaye (Disc1)Marvin Gaye - The Best Of Marvin Gaye (Disc1) - 07. Baby Don't You Do It.wav\n\n     Peak level 89.1 %\n     Track quality 100.0 %\n     Copy CRC 74C14425\n     Cannot be verified as accurate (confidence 6)  [473D4D4C], AccurateRip returned [D6336E7C]\n     Copy OK\n\nTrack  8\n\n     Filename E:MusicMarvin GayeThe Best Of Marvin Gaye (Disc1)Marvin Gaye - The Best Of Marvin Gaye (Disc1) - 08. How Sweet It Is (To Be Loved By You).wav\n\n     Peak level 100.0 %\n     Track quality 100.0 %\n     Copy CRC 2071AD16\n     Cannot be verified as accurate (confidence 6)  [9AACEEE6], AccurateRip returned [9D06E332]\n     Copy OK\n\nTrack  9\n\n     Filename E:MusicMarvin GayeThe Best Of Marvin Gaye (Disc1)Marvin Gaye - The Best Of Marvin Gaye (Disc1) - 09. I'll Be Doggone.wav\n\n     Peak level 100.0 %\n     Track quality 100.0 %\n     Copy CRC 2CE10678\n     Cannot be verified as accurate (confidence 6)  [11BCF6DC], AccurateRip returned [45CF4DF2]\n     Copy OK\n\nTrack 10\n\n     Filename E:MusicMarvin GayeThe Best Of Marvin Gaye (Disc1)Marvin Gaye - The Best Of Marvin Gaye (Disc1) - 10. Ain't That Peculiar.wav\n\n     Peak level 100.0 %\n     Track quality 100.0 %\n     Copy CRC 5836693F\n     Cannot be verified as accurate (confidence 6)  [486CA478], AccurateRip returned [21400081]\n     Copy OK\n\nTrack 11\n\n     Filename E:MusicMarvin GayeThe Best Of Marvin Gaye (Disc1)Marvin Gaye - The Best Of Marvin Gaye (Disc1) - 11. One More Heartache.wav\n\n     Peak level 100.0 %\n     Track quality 100.0 %\n     Copy CRC 6220C289\n     Cannot be verified as accurate (confidence 6)  [4147E89B], AccurateRip returned [EF60D0FE]\n     Copy OK\n\nTrack 12\n\n     Filename E:MusicMarvin GayeThe Best Of Marvin Gaye (Disc1)Marvin Gaye - The Best Of Marvin Gaye (Disc1) - 12. Take This Heart Of Mine.wav\n\n     Peak level 100.0 %\n     Track quality 100.0 %\n     Copy CRC 81774AAC\n     Cannot be verified as accurate (confidence 6)  [42EDA963], AccurateRip returned [4A5A4A51]\n     Copy OK\n\nTrack 13\n\n     Filename E:MusicMarvin GayeThe Best Of Marvin Gaye (Disc1)Marvin Gaye - The Best Of Marvin Gaye (Disc1) - 13. Little Darling (I Need You).wav\n\n     Peak level 100.0 %\n     Track quality 100.0 %\n     Copy CRC 009ED348\n     Cannot be verified as accurate (confidence 6)  [8E8DFC38], AccurateRip returned [62019997]\n     Copy OK\n\nTrack 14\n\n     Filename E:MusicMarvin GayeThe Best Of Marvin Gaye (Disc1)Marvin Gaye - The Best Of Marvin Gaye (Disc1) - 14. Sweeter As The Days Go By.wav\n\n     Peak level 85.6 %\n     Track quality 100.0 %\n     Copy CRC CABCCB97\n     Cannot be verified as accurate (confidence 6)  [C23F76B7], AccurateRip returned [75F5828E]\n     Copy OK\n\nTrack 15\n\n     Filename E:MusicMarvin GayeThe Best Of Marvin Gaye (Disc1)Marvin Gaye - The Best Of Marvin Gaye (Disc1) - 15. It Takes Two.wav\n\n     Peak level 97.7 %\n     Track quality 100.0 %\n     Copy CRC 09895079\n     Cannot be verified as accurate (confidence 6)  [97434179], AccurateRip returned [DEB8B037]\n     Copy OK\n\nTrack 16\n\n     Filename E:MusicMarvin GayeThe Best Of Marvin Gaye (Disc1)Marvin Gaye - The Best Of Marvin Gaye (Disc1) - 16. Ain't No Mountain High Enough.wav\n\n     Peak level 97.7 %\n     Track quality 99.9 %\n     Copy CRC 026B0D8F\n     Cannot be verified as accurate (confidence 6)  [C08C0F9C], AccurateRip returned [13D53A84]\n     Copy OK\n\nTrack 17\n\n     Filename E:MusicMarvin GayeThe Best Of Marvin Gaye (Disc1)Marvin Gaye - The Best Of Marvin Gaye (Disc1) - 17. Your Unchanging Love.wav\n\n     Peak level 100.0 %\n     Track quality 100.0 %\n     Copy CRC F3FD6593\n     Cannot be verified as accurate (confidence 6)  [2F4BF8C8], AccurateRip returned [083EE726]\n     Copy OK\n\nTrack 18\n\n     Filename E:MusicMarvin GayeThe Best Of Marvin Gaye (Disc1)Marvin Gaye - The Best Of Marvin Gaye (Disc1) - 18. Sweet Thing.wav\n\n     Peak level 100.0 %\n     Track quality 100.0 %\n     Copy CRC 460F59F6\n     Cannot be verified as accurate (confidence 6)  [1BD86CAC], AccurateRip returned [66E19E12]\n     Copy OK\n\nTrack 19\n\n     Filename E:MusicMarvin GayeThe Best Of Marvin Gaye (Disc1)Marvin Gaye - The Best Of Marvin Gaye (Disc1) - 19. Your Precious Love.wav\n\n     Peak level 97.7 %\n     Track quality 100.0 %\n     Copy CRC BEE7B901\n     Cannot be verified as accurate (confidence 6)  [ED724B16], AccurateRip returned [E2BA5658]\n     Copy OK\n\nTrack 20\n\n     Filename E:MusicMarvin GayeThe Best Of Marvin Gaye (Disc1)Marvin Gaye - The Best Of Marvin Gaye (Disc1) - 20. If I Could Build My Whole World Around You.wav\n\n     Peak level 97.7 %\n     Track quality 100.0 %\n     Copy CRC 008C0029\n     Cannot be verified as accurate (confidence 6)  [BA0A039B], AccurateRip returned [49B11A45]\n     Copy OK\n\nTrack 21\n\n     Filename E:MusicMarvin GayeThe Best Of Marvin Gaye (Disc1)Marvin Gaye - The Best Of Marvin Gaye (Disc1) - 21. You.wav\n\n     Peak level 97.7 %\n     Track quality 100.0 %\n     Copy CRC 8D25CD00\n     Cannot be verified as accurate (confidence 6)  [DB683AAD], AccurateRip returned [1DF8B839]\n     Copy OK\n\nTrack 22\n\n     Filename E:MusicMarvin GayeThe Best Of Marvin Gaye (Disc1)Marvin Gaye - The Best Of Marvin Gaye (Disc1) - 22. Ain't Nothing Like The Real Thing.wav\n\n     Peak level 97.7 %\n     Track quality 100.0 %\n     Copy CRC EC97F7F3\n     Cannot be verified as accurate (confidence 6)  [32DA6A27], AccurateRip returned [020C39A6]\n     Copy OK\n\nTrack 23\n\n     Filename E:MusicMarvin GayeThe Best Of Marvin Gaye (Disc1)Marvin Gaye - The Best Of Marvin Gaye (Disc1) - 23. You're All I Need To Get By.wav\n\n     Peak level 97.7 %\n     Track quality 100.0 %\n     Copy CRC 9AC7DAC9\n     Cannot be verified as accurate (confidence 5)  [F0436DD0], AccurateRip returned [CBD1034B]\n     Copy OK\n\nTrack 24\n\n     Filename E:MusicMarvin GayeThe Best Of Marvin Gaye (Disc1)Marvin Gaye - The Best Of Marvin Gaye (Disc1) - 24. Chained.wav\n\n     Peak level 97.7 %\n     Track quality 99.9 %\n     Copy CRC 435545C1\n     Cannot be verified as accurate (confidence 5)  [940628B2], AccurateRip returned [9DE55EF2]\n     Copy OK\n\nTrack 25\n\n     Filename E:MusicMarvin GayeThe Best Of Marvin Gaye (Disc1)Marvin Gaye - The Best Of Marvin Gaye (Disc1) - 25. I Heard It Through The Grapevine.wav\n\n     Peak level 97.7 %\n     Track quality 100.0 %\n     Copy CRC C0B241C8\n     Cannot be verified as accurate (confidence 5)  [692A2F0C], AccurateRip returned [1743791F]\n     Copy OK\n\nTrack 26\n\n     Filename E:MusicMarvin GayeThe Best Of Marvin Gaye (Disc1)Marvin Gaye - The Best Of Marvin Gaye (Disc1) - 26. Too Busy Thinking About My Baby.wav\n\n     Peak level 97.7 %\n     Track quality 100.0 %\n     Copy CRC D8ED6353\n     Cannot be verified as accurate (confidence 5)  [ABD17C92], AccurateRip returned [E47F726A]\n     Copy OK\n\nTrack 27\n\n     Filename E:MusicMarvin GayeThe Best Of Marvin Gaye (Disc1)Marvin Gaye - The Best Of Marvin Gaye (Disc1) - 27. That's The Way Love Is.wav\n\n     Peak level 97.7 %\n     Track quality 100.0 %\n     Copy CRC 96053A03\n     Cannot be verified as accurate (confidence 5)  [04D7526E], AccurateRip returned [7DD2C156]\n     Copy OK\n\n\nNo tracks could be verified as accurate\nYou may have a different pressing from the one(s) in the database\n\nNo errors occurred\n\nEnd of status report\n\nExact Audio Copy V0.99 prebeta 4 from 23. January 2008\n\nEAC extraction logfile from 3. July 2009, 20:03\n\nMarvin Gaye / The Best Of Marvin Gaye (Disc2)\n\nUsed drive  : ATAPI   DVD D  DH16D3P   Adapter: 0  ID: 1\n\nRead mode               : Secure\nUtilize accurate stream : Yes\nDefeat audio cache      : No\nMake use of C2 pointers : No\n\nRead offset correction                      : 6\nOverread into Lead-In and Lead-Out          : No\nFill up missing offset samples with silence : Yes\nDelete leading and trailing silent blocks   : No\nNull samples used in CRC calculations       : No\nUsed interface                              : Installed external ASPI interface\nGap handling                                : Not detected, thus appended to previous track\n\nUsed output format : Internal WAV Routines\nSample format      : 44.100 Hz; 16 Bit; Stereo\n\n\nTOC of the extracted CD\n\n     Track |   Start  |  Length  | Start sector | End sector \n    ---------------------------------------------------------\n        1  |  0:00.00 |  3:58.25 |         0    |    17874   \n        2  |  3:58.25 |  2:52.45 |     17875    |    30819   \n        3  |  6:50.70 |  2:34.15 |     30820    |    42384   \n        4  |  9:25.10 |  2:58.32 |     42385    |    55766   \n        5  | 12:23.42 |  2:23.53 |     55767    |    66544   \n        6  | 14:47.20 |  5:45.60 |     66545    |    92479   \n        7  | 20:33.05 |  3:50.22 |     92480    |   109751   \n        8  | 24:23.27 |  3:58.15 |    109752    |   127616   \n        9  | 28:21.42 |  4:02.05 |    127617    |   145771   \n       10  | 32:23.47 |  2:41.08 |    145772    |   157854   \n       11  | 35:04.55 |  4:26.45 |    157855    |   177849   \n       12  | 39:31.25 |  2:55.12 |    177850    |   190986   \n       13  | 42:26.37 |  3:56.33 |    190987    |   208719   \n       14  | 46:22.70 |  3:56.10 |    208720    |   226429   \n       15  | 50:19.05 |  3:31.22 |    226430    |   242276   \n       16  | 53:50.27 |  4:12.48 |    242277    |   261224   \n       17  | 58:03.00 |  6:17.02 |    261225    |   289501   \n       18  | 64:20.02 |  5:10.55 |    289502    |   312806   \n       19  | 69:30.57 |  3:52.73 |    312807    |   330279   \n       20  | 73:23.55 |  3:45.70 |    330280    |   347224   \n\n\nTrack  1\n\n     Filename E:MusicMarvin GayeThe Best Of Marvin GayeThe Best Of Marvin Gaye (Disc2)Marvin Gaye - The Best Of Marvin Gaye (Disc2) - 01. What's Going On.wav\n\n     Peak level 97.7 %\n     Track quality 100.0 %\n     Copy CRC C3B344F7\n     Cannot be verified as accurate (confidence 7)  [7DDB08B4], AccurateRip returned [39F77436]\n     Copy OK\n\nTrack  2\n\n     Filename E:MusicMarvin GayeThe Best Of Marvin GayeThe Best Of Marvin Gaye (Disc2)Marvin Gaye - The Best Of Marvin Gaye (Disc2) - 02. God Is Love.wav\n\n     Peak level 97.7 %\n     Track quality 100.0 %\n     Copy CRC CDE98134\n     Cannot be verified as accurate (confidence 7)  [60A172C0], AccurateRip returned [54D40FD9]\n     Copy OK\n\nTrack  3\n\n     Filename E:MusicMarvin GayeThe Best Of Marvin GayeThe Best Of Marvin Gaye (Disc2)Marvin Gaye - The Best Of Marvin Gaye (Disc2) - 03. Mercy Mercy Me (The Ecology).wav\n\n     Peak level 97.7 %\n     Track quality 100.0 %\n     Copy CRC 62D67BBA\n     Cannot be verified as accurate (confidence 7)  [1749F8F0], AccurateRip returned [6C57C599]\n     Copy OK\n\nTrack  4\n\n     Filename E:MusicMarvin GayeThe Best Of Marvin GayeThe Best Of Marvin Gaye (Disc2)Marvin Gaye - The Best Of Marvin Gaye (Disc2) - 04. Inner City Blues (Make Me Wanna Holler).wav\n\n     Peak level 95.5 %\n     Track quality 100.0 %\n     Copy CRC BBEA931D\n     Cannot be verified as accurate (confidence 7)  [6971716D], AccurateRip returned [DF164641]\n     Copy OK\n\nTrack  5\n\n     Filename E:MusicMarvin GayeThe Best Of Marvin GayeThe Best Of Marvin Gaye (Disc2)Marvin Gaye - The Best Of Marvin Gaye (Disc2) - 05. Sad Tomorrows.wav\n\n     Peak level 97.7 %\n     Track quality 100.0 %\n     Copy CRC A9B9B926\n     Cannot be verified as accurate (confidence 7)  [D8EE09D3], AccurateRip returned [D859D388]\n     Copy OK\n\nTrack  6\n\n     Filename E:MusicMarvin GayeThe Best Of Marvin GayeThe Best Of Marvin Gaye (Disc2)Marvin Gaye - The Best Of Marvin Gaye (Disc2) - 06. You're The Man (Parts I &amp; II).wav\n\n     Peak level 95.5 %\n     Track quality 100.0 %\n     Copy CRC B8170EC6\n     Cannot be verified as accurate (confidence 7)  [CCF14218], AccurateRip returned [C61AE516]\n     Copy OK\n\nTrack  7\n\n     Filename E:MusicMarvin GayeThe Best Of Marvin GayeThe Best Of Marvin Gaye (Disc2)Marvin Gaye - The Best Of Marvin Gaye (Disc2) - 07. The World Is Rated X.wav\n\n     Peak level 97.7 %\n     Track quality 100.0 %\n     Copy CRC AFBC2C0E\n     Cannot be verified as accurate (confidence 8)  [E5463E64], AccurateRip returned [88BDC12D]\n     Copy OK\n\nTrack  8\n\n     Filename E:MusicMarvin GayeThe Best Of Marvin GayeThe Best Of Marvin Gaye (Disc2)Marvin Gaye - The Best Of Marvin Gaye (Disc2) - 08. Trouble Man.wav\n\n     Peak level 97.7 %\n     Track quality 100.0 %\n     Copy CRC 85CE9BB9\n     Cannot be verified as accurate (confidence 7)  [5DE6A83B], AccurateRip returned [1967DFE7]\n     Copy OK\n\nTrack  9\n\n     Filename E:MusicMarvin GayeThe Best Of Marvin GayeThe Best Of Marvin Gaye (Disc2)Marvin Gaye - The Best Of Marvin Gaye (Disc2) - 09. Let's Get It On.wav\n\n     Peak level 97.7 %\n     Track quality 99.9 %\n     Copy CRC 199B3790\n     Cannot be verified as accurate (confidence 7)  [11F5B2EF], AccurateRip returned [94461289]\n     Copy OK\n\nTrack 10\n\n     Filename E:MusicMarvin GayeThe Best Of Marvin GayeThe Best Of Marvin Gaye (Disc2)Marvin Gaye - The Best Of Marvin Gaye (Disc2) - 10. Come Get To This.wav\n\n     Peak level 95.5 %\n     Track quality 100.0 %\n     Copy CRC 184AEF32\n     Cannot be verified as accurate (confidence 7)  [18198173], AccurateRip returned [F8EA307A]\n     Copy OK\n\nTrack 11\n\n     Filename E:MusicMarvin GayeThe Best Of Marvin GayeThe Best Of Marvin Gaye (Disc2)Marvin Gaye - The Best Of Marvin Gaye (Disc2) - 11. Just To Keep You Satisfied.wav\n\n     Peak level 95.5 %\n     Track quality 100.0 %\n     Copy CRC 4147C6AD\n     Cannot be verified as accurate (confidence 7)  [6B07A328], AccurateRip returned [F97F4556]\n     Copy OK\n\nTrack 12\n\n     Filename E:MusicMarvin GayeThe Best Of Marvin GayeThe Best Of Marvin Gaye (Disc2)Marvin Gaye - The Best Of Marvin Gaye (Disc2) - 12. My Mistake (Was To Love You).wav\n\n     Peak level 95.5 %\n     Track quality 100.0 %\n     Copy CRC AB89E36C\n     Cannot be verified as accurate (confidence 7)  [5F013E43], AccurateRip returned [E834C762]\n     Copy OK\n\nTrack 13\n\n     Filename E:MusicMarvin GayeThe Best Of Marvin GayeThe Best Of Marvin Gaye (Disc2)Marvin Gaye - The Best Of Marvin Gaye (Disc2) - 13. Distant Lover (Live).wav\n\n     Peak level 97.7 %\n     Track quality 99.9 %\n     Copy CRC 2269BB98\n     Cannot be verified as accurate (confidence 7)  [84FEE586], AccurateRip returned [98E7D840]\n     Copy OK\n\nTrack 14\n\n     Filename E:MusicMarvin GayeThe Best Of Marvin GayeThe Best Of Marvin Gaye (Disc2)Marvin Gaye - The Best Of Marvin Gaye (Disc2) - 14. I Want You.wav\n\n     Peak level 97.7 %\n     Track quality 100.0 %\n     Copy CRC 195CCA35\n     Cannot be verified as accurate (confidence 7)  [D15A2F3D], AccurateRip returned [41B7AA5B]\n     Copy OK\n\nTrack 15\n\n     Filename E:MusicMarvin GayeThe Best Of Marvin GayeThe Best Of Marvin Gaye (Disc2)Marvin Gaye - The Best Of Marvin Gaye (Disc2) - 15. After The Dance.wav\n\n     Peak level 97.7 %\n     Track quality 100.0 %\n     Copy CRC B7BD6359\n     Cannot be verified as accurate (confidence 7)  [642CC5F8], AccurateRip returned [E9EAB6E1]\n     Copy OK\n\nTrack 16\n\n     Filename E:MusicMarvin GayeThe Best Of Marvin GayeThe Best Of Marvin Gaye (Disc2)Marvin Gaye - The Best Of Marvin Gaye (Disc2) - 16. Got To Give It Up (Part I).wav\n\n     Peak level 95.4 %\n     Track quality 100.0 %\n     Copy CRC 074EC5BB\n     Cannot be verified as accurate (confidence 7)  [2EC2A30E], AccurateRip returned [B63C1B18]\n     Copy OK\n\nTrack 17\n\n     Filename E:MusicMarvin GayeThe Best Of Marvin GayeThe Best Of Marvin Gaye (Disc2)Marvin Gaye - The Best Of Marvin Gaye (Disc2) - 17. When Did You Stop Loving Me, When Did I Stop Loving You.wav\n\n     Peak level 95.5 %\n     Track quality 100.0 %\n     Copy CRC D9C9A21D\n     Cannot be verified as accurate (confidence 7)  [382DF503], AccurateRip returned [13094D1D]\n     Copy OK\n\nTrack 18\n\n     Filename E:MusicMarvin GayeThe Best Of Marvin GayeThe Best Of Marvin Gaye (Disc2)Marvin Gaye - The Best Of Marvin Gaye (Disc2) - 18. Ego Tripping Out.wav\n\n     Peak level 97.7 %\n     Track quality 100.0 %\n     Copy CRC 3771F916\n     Cannot be verified as accurate (confidence 7)  [1D3D690D], AccurateRip returned [0081221F]\n     Copy OK\n\nTrack 19\n\n     Filename E:MusicMarvin GayeThe Best Of Marvin GayeThe Best Of Marvin Gaye (Disc2)Marvin Gaye - The Best Of Marvin Gaye (Disc2) - 19. Praise.wav\n\n     Peak level 87.0 %\n     Track quality 100.0 %\n     Copy CRC 87632D8A\n     Cannot be verified as accurate (confidence 7)  [E12A4D37], AccurateRip returned [23E9F81A]\n     Copy OK\n\nTrack 20\n\n     Filename E:MusicMarvin GayeThe Best Of Marvin GayeThe Best Of Marvin Gaye (Disc2)Marvin Gaye - The Best Of Marvin Gaye (Disc2) - 20. Heavy Love Affair.wav\n\n     Peak level 87.0 %\n     Track quality 100.0 %\n     Copy CRC 477D7397\n     Cannot be verified as accurate (confidence 6)  [E9DDCF9D], AccurateRip returned [DAC326F2]\n     Copy OK\n\n\nNo tracks could be verified as accurate\nYou may have a different pressing from the one(s) in the database\n\nNo errors occurred\n\nEnd of status report\n\n","torrent":{"xt":"urn:btih:a794f5e2fbd20c655ea5e0f8d4124d1618277634","amp;dn":"The+Best+Of+Marvin+Gaye","amp;tr":["udp%3A%2F%2Ftracker.openbittorrent.com%3A80","udp%3A%2F%2Fopen.demonii.com%3A1337","udp%3A%2F%2Ftracker.coppersurfer.tk%3A6969","udp%3A%2F%2Fexodus.desync.com%3A6969"],"infoHash":"a794f5e2fbd20c655ea5e0f8d4124d1618277634","infoHashBuffer":{"type":"Buffer","data":[167,148,245,226,251,210,12,101,94,165,224,248,212,18,77,22,24,39,118,52]},"announce":[],"urlList":[]}}